<svg width="126" height="125" viewBox="0 0 126 125" fill="none" xmlns="http://www.w3.org/2000/svg">
<path d="M125.6 62.8L109.8 47V10.8H90.8V28L62.8 0L0 62.8L7.8 70.6L15.8 62.6V124.8H109.8V62.6L117.8 70.6L125.6 62.8ZM5.6 62.8L62.8 5.6L94.8 37.6V14.8H105.8V48.6L120 62.8L117.8 65L62.8 10L7.8 65L5.6 62.8ZM105.8 58.8V120.8H19.8V58.8H19.6L62.8 15.6L106 58.8H105.8Z" fill="black"/>
<path d="M93.0016 82.8C93.0016 80.9 92.2016 79.2 91.0016 77.9C92.2016 76.7 93.0016 75.1 93.0016 73.3C93.0016 69.7 90.1016 66.8 86.5016 66.8H74.5016C74.2016 66.8 74.0016 66.6 74.0016 66.3V52.8C74.0016 47.8 70.0016 43.8 65.0016 43.8C63.1016 43.8 61.5016 45.4 61.5016 47.3V56.5C59.6016 61.9 56.3016 66.6001 51.9016 70.1001V69.8H32.6016V107.8H52.0016V105.5C55.0016 107 58.2016 107.8 61.6016 107.8H81.1016C84.4016 107.8 87.1016 105.1 87.1016 101.8C87.1016 100.9 86.9016 100.1 86.6016 99.3C89.2016 98.3 91.1016 95.7001 91.1016 92.8C91.1016 91.3 90.6016 89.9001 89.8016 88.7001C91.7016 87.5 93.0016 85.3 93.0016 82.8ZM47.9016 103.8H36.6016V73.8H48.0016V103.8H47.9016ZM84.0016 95.8H81.0016V99.8C82.1016 99.8 83.0016 100.7 83.0016 101.8C83.0016 102.9 82.1016 103.8 81.0016 103.8H61.5016C58.1016 103.8 54.8016 102.8 51.9016 100.9V75.2001L54.3016 73.3C59.5016 69.2 63.3016 63.7 65.4016 57.4L65.5016 57.1V47.8C68.0016 48.1 70.0016 50.2 70.0016 52.8V66.3C70.0016 68.8 72.0016 70.8 74.5016 70.8H86.5016C87.9016 70.8 89.0016 71.9 89.0016 73.3C89.0016 74.7 87.9016 75.8 86.5016 75.8H86.0016V79.8C87.7016 79.8 89.0016 81.1 89.0016 82.8C89.0016 84.5 87.7016 85.8 86.0016 85.8H85.0016V85.9C84.7016 85.9 84.3016 85.8 84.0016 85.8V89.8C85.7016 89.8 87.0016 91.1 87.0016 92.8C87.0016 94.5 85.7016 95.8 84.0016 95.8Z" fill="black"/>
</svg>
