<svg width="94" height="124" viewBox="0 0 94 124" fill="none" xmlns="http://www.w3.org/2000/svg">
<path d="M0 124H94V21.2L72.8 0H0V124ZM74 6.8L87.2 20H74V6.8ZM4 4H70V24H90V120H4V4Z" fill="black"/>
<path d="M82 40H12V44H82V40Z" fill="black"/>
<path d="M82 50H12V54H82V50Z" fill="black"/>
<path d="M82 60H62V64H82V60Z" fill="black"/>
<path d="M62 20H32V24H62V20Z" fill="black"/>
<path d="M62.9992 75C56.1992 75 50.3992 79 47.5992 84.8H22.2992L15.1992 90.5L21.9992 99.3H28.7992L30.4992 97.6L32.1992 99.3H38.8992L40.5992 97.6L42.2992 99.3H47.7992C50.4992 105.1 56.3992 109.1 63.1992 109.1C72.5992 109.1 80.1992 101.5 80.1992 92.1C80.1992 82.7 72.3992 75 62.9992 75ZM43.7992 95.3L40.4992 92L37.1992 95.3H33.8992L30.5992 92L27.2992 95.3H23.9992L20.7992 91.1L23.6992 88.8H46.2992C46.0992 89.8 45.9992 90.9 45.9992 92C45.9992 93.1 46.0992 94.2 46.2992 95.2H43.7992V95.3ZM62.9992 105C55.7992 105 49.9992 99.2 49.9992 92C49.9992 84.8 55.7992 79 62.9992 79C70.1992 79 75.9992 84.8 75.9992 92C75.9992 99.2 70.1992 105 62.9992 105Z" fill="black"/>
<path d="M68.1992 95C69.8561 95 71.1992 93.6569 71.1992 92C71.1992 90.3431 69.8561 89 68.1992 89C66.5424 89 65.1992 90.3431 65.1992 92C65.1992 93.6569 66.5424 95 68.1992 95Z" fill="black"/>
</svg>
