<svg width="125" height="119" viewBox="0 0 125 119" fill="none" xmlns="http://www.w3.org/2000/svg">
<path d="M4 102H0C0 111.4 7.6 119 17 119H124V15H19V0H17C7.6 0 0 7.6 0 17V102H4C4 94.8 9.8 89 17 89H19V19H120V115H17C9.8 115 4 109.2 4 102ZM15 44.5C15 62 15 79.5 15 85.1C10.6 85.6 6.7 87.8 4 91V17C4 10.5 8.8 5.1 15 4.2V44.5Z" fill="black"/>
<path d="M25 0V10H112.4L124.1 5L112.4 0H25ZM29 4H35V6H29V4ZM111.6 6H39V4H111.6L113.9 5L111.6 6Z" fill="black"/>
<path d="M44.5 70.5V100H93.5V70.5H89.5V96H48.5V70.5H44.5Z" fill="black"/>
<path d="M81.9996 41V48.2L68.9996 35.2L37.5996 66.5999L40.3996 69.4L68.9996 40.7999L85.9996 57.7999V45H89.4996V61.2999L97.5996 69.4L100.4 66.5999L93.4996 59.7V41H81.9996Z" fill="black"/>
</svg>
